<svg width="24" height="24" viewBox="0 0 24 24" fill="none" xmlns="http://www.w3.org/2000/svg">
<mask id="mask0_1461_1321" style="mask-type:alpha" maskUnits="userSpaceOnUse" x="0" y="0" width="24" height="24">
<g clip-path="url(#clip0_1461_1321)">
<mask id="mask1_1461_1321" style="mask-type:luminance" maskUnits="userSpaceOnUse" x="0" y="0" width="24" height="24">
<rect width="24" height="24" fill="white"/>
</mask>
<g mask="url(#mask1_1461_1321)">
<path fill-rule="evenodd" clip-rule="evenodd" d="M0 0V24H24V0H0Z" fill="#F7FCFF"/>
<mask id="mask2_1461_1321" style="mask-type:luminance" maskUnits="userSpaceOnUse" x="0" y="0" width="24" height="24">
<path fill-rule="evenodd" clip-rule="evenodd" d="M0 0V24H24V0H0Z" fill="white"/>
</mask>
<g mask="url(#mask2_1461_1321)">
<path fill-rule="evenodd" clip-rule="evenodd" d="M0 0V8H24V0H0Z" fill="#E31D1C"/>
<path fill-rule="evenodd" clip-rule="evenodd" d="M0 16V24H24V16H0Z" fill="#3D58DB"/>
</g>
</g>
</g>
<rect width="24" height="24" rx="12" fill="url(#paint0_linear_1461_1321)"/>
<rect x="0.5" y="0.5" width="23" height="23" rx="11.5" stroke="black" stroke-opacity="0.1"/>
</mask>
<g mask="url(#mask0_1461_1321)">
<path fill-rule="evenodd" clip-rule="evenodd" d="M-7 0H25V24H-7V0Z" fill="#F7FCFF"/>
<path fill-rule="evenodd" clip-rule="evenodd" d="M-7 14.6667V16.6667H25V14.6667H-7Z" fill="#E31D1C"/>
<path fill-rule="evenodd" clip-rule="evenodd" d="M-7 18.3333V20.3333H25V18.3333H-7Z" fill="#E31D1C"/>
<path fill-rule="evenodd" clip-rule="evenodd" d="M-7 7.33333V9.33333H25V7.33333H-7Z" fill="#E31D1C"/>
<path fill-rule="evenodd" clip-rule="evenodd" d="M-7 22V24H25V22H-7Z" fill="#E31D1C"/>
<path fill-rule="evenodd" clip-rule="evenodd" d="M-7 11V13H25V11H-7Z" fill="#E31D1C"/>
<path fill-rule="evenodd" clip-rule="evenodd" d="M-7 0V2H25V0H-7Z" fill="#E31D1C"/>
<path fill-rule="evenodd" clip-rule="evenodd" d="M-7 3.66667V5.66667H25V3.66667H-7Z" fill="#E31D1C"/>
<rect x="-7" width="20" height="13" fill="#2E42A5"/>
<path d="M-4.94739 9.96823H-4.22961L-4.79407 10.5415L-4.57532 11.4477L-5.27747 10.9389L-6.00403 11.4477L-5.75891 10.5415L-6.40344 9.96823H-5.56165L-5.27844 9.22897L-4.94739 9.96823ZM-0.947388 9.96823H-0.229614L-0.794067 10.5415L-0.575317 11.4477L-1.27747 10.9389L-2.00403 11.4477L-1.75891 10.5415L-2.40344 9.96823H-1.56165L-1.27844 9.22897L-0.947388 9.96823ZM3.05261 9.96823H3.77039L3.20593 10.5415L3.42468 11.4477L2.72253 10.9389L1.99597 11.4477L2.24109 10.5415L1.59656 9.96823H2.43835L2.72156 9.22897L3.05261 9.96823ZM7.05261 9.96823H7.77039L7.20593 10.5415L7.42468 11.4477L6.72253 10.9389L5.99597 11.4477L6.24109 10.5415L5.59656 9.96823H6.43835L6.72156 9.22897L7.05261 9.96823ZM11.0526 9.96823H11.7704L11.2059 10.5415L11.4247 11.4477L10.7225 10.9389L9.99597 11.4477L10.2411 10.5415L9.59656 9.96823H10.4384L10.7216 9.22897L11.0526 9.96823ZM-2.94739 7.96823H-2.22961L-2.79407 8.54147L-2.57532 9.44772L-3.27747 8.93893L-4.00403 9.44772L-3.75891 8.54147L-4.40344 7.96823H-3.56165L-3.27844 7.22897L-2.94739 7.96823ZM1.05261 7.96823H1.77039L1.20593 8.54147L1.42468 9.44772L0.722534 8.93893L-0.00402832 9.44772L0.241089 8.54147L-0.403442 7.96823H0.438354L0.721558 7.22897L1.05261 7.96823ZM5.05261 7.96823H5.77039L5.20593 8.54147L5.42468 9.44772L4.72253 8.93893L3.99597 9.44772L4.24109 8.54147L3.59656 7.96823H4.43835L4.72156 7.22897L5.05261 7.96823ZM9.05261 7.96823H9.77039L9.20593 8.54147L9.42468 9.44772L8.72253 8.93893L7.99597 9.44772L8.24109 8.54147L7.59656 7.96823H8.43835L8.72156 7.22897L9.05261 7.96823ZM-4.94739 5.96823H-4.22961L-4.79407 6.54147L-4.57532 7.44772L-5.27747 6.93893L-6.00403 7.44772L-5.75891 6.54147L-6.40344 5.96823H-5.56165L-5.27844 5.22897L-4.94739 5.96823ZM-0.947388 5.96823H-0.229614L-0.794067 6.54147L-0.575317 7.44772L-1.27747 6.93893L-2.00403 7.44772L-1.75891 6.54147L-2.40344 5.96823H-1.56165L-1.27844 5.22897L-0.947388 5.96823ZM3.05261 5.96823H3.77039L3.20593 6.54147L3.42468 7.44772L2.72253 6.93893L1.99597 7.44772L2.24109 6.54147L1.59656 5.96823H2.43835L2.72156 5.22897L3.05261 5.96823ZM7.05261 5.96823H7.77039L7.20593 6.54147L7.42468 7.44772L6.72253 6.93893L5.99597 7.44772L6.24109 6.54147L5.59656 5.96823H6.43835L6.72156 5.22897L7.05261 5.96823ZM11.0526 5.96823H11.7704L11.2059 6.54147L11.4247 7.44772L10.7225 6.93893L9.99597 7.44772L10.2411 6.54147L9.59656 5.96823H10.4384L10.7216 5.22897L11.0526 5.96823ZM-2.94739 3.96823H-2.22961L-2.79407 4.54147L-2.57532 5.44772L-3.27747 4.93893L-4.00403 5.44772L-3.75891 4.54147L-4.40344 3.96823H-3.56165L-3.27844 3.22897L-2.94739 3.96823ZM1.05261 3.96823H1.77039L1.20593 4.54147L1.42468 5.44772L0.722534 4.93893L-0.00402832 5.44772L0.241089 4.54147L-0.403442 3.96823H0.438354L0.721558 3.22897L1.05261 3.96823ZM5.05261 3.96823H5.77039L5.20593 4.54147L5.42468 5.44772L4.72253 4.93893L3.99597 5.44772L4.24109 4.54147L3.59656 3.96823H4.43835L4.72156 3.22897L5.05261 3.96823ZM9.05261 3.96823H9.77039L9.20593 4.54147L9.42468 5.44772L8.72253 4.93893L7.99597 5.44772L8.24109 4.54147L7.59656 3.96823H8.43835L8.72156 3.22897L9.05261 3.96823ZM-4.94739 1.96823H-4.22961L-4.79407 2.54147L-4.57532 3.44772L-5.27747 2.93893L-6.00403 3.44772L-5.75891 2.54147L-6.40344 1.96823H-5.56165L-5.27844 1.22897L-4.94739 1.96823ZM-0.947388 1.96823H-0.229614L-0.794067 2.54147L-0.575317 3.44772L-1.27747 2.93893L-2.00403 3.44772L-1.75891 2.54147L-2.40344 1.96823H-1.56165L-1.27844 1.22897L-0.947388 1.96823ZM3.05261 1.96823H3.77039L3.20593 2.54147L3.42468 3.44772L2.72253 2.93893L1.99597 3.44772L2.24109 2.54147L1.59656 1.96823H2.43835L2.72156 1.22897L3.05261 1.96823ZM7.05261 1.96823H7.77039L7.20593 2.54147L7.42468 3.44772L6.72253 2.93893L5.99597 3.44772L6.24109 2.54147L5.59656 1.96823H6.43835L6.72156 1.22897L7.05261 1.96823ZM11.0526 1.96823H11.7704L11.2059 2.54147L11.4247 3.44772L10.7225 2.93893L9.99597 3.44772L10.2411 2.54147L9.59656 1.96823H10.4384L10.7216 1.22897L11.0526 1.96823Z" fill="#F7FCFF"/>
</g>
<defs>
<linearGradient id="paint0_linear_1461_1321" x1="12" y1="0" x2="12" y2="24" gradientUnits="userSpaceOnUse">
<stop stop-color="white" stop-opacity="0.7"/>
<stop offset="1" stop-opacity="0.3"/>
</linearGradient>
<clipPath id="clip0_1461_1321">
<rect width="24" height="24" rx="12" fill="white"/>
</clipPath>
</defs>
</svg>
